<mxfile host="app.diagrams.net" modified="2022-04-17T21:56:43.891Z" agent="5.0 (Macintosh; Intel Mac OS X 10_15_7) AppleWebKit/605.1.15 (KHTML, like Gecko) Version/15.3 Safari/605.1.15" etag="0flk8DWY8WiuseV_d7Nj" version="17.4.4" type="github">
  <diagram id="C5RBs43oDa-KdzZeNtuy" name="Page-1">
    <mxGraphModel dx="2102" dy="1960" grid="1" gridSize="10" guides="1" tooltips="1" connect="1" arrows="1" fold="1" page="1" pageScale="1" pageWidth="827" pageHeight="1169" math="0" shadow="0">
      <root>
        <mxCell id="WIyWlLk6GJQsqaUBKTNV-0" />
        <mxCell id="WIyWlLk6GJQsqaUBKTNV-1" parent="WIyWlLk6GJQsqaUBKTNV-0" />
        <mxCell id="WIyWlLk6GJQsqaUBKTNV-2" value="" style="rounded=0;html=1;jettySize=auto;orthogonalLoop=1;fontSize=11;endArrow=block;endFill=0;endSize=8;strokeWidth=1;shadow=0;labelBackgroundColor=none;edgeStyle=orthogonalEdgeStyle;" parent="WIyWlLk6GJQsqaUBKTNV-1" source="WIyWlLk6GJQsqaUBKTNV-3" target="u6XhYRpbRkbT6tNBYT3o-3" edge="1">
          <mxGeometry relative="1" as="geometry">
            <Array as="points" />
          </mxGeometry>
        </mxCell>
        <mxCell id="WIyWlLk6GJQsqaUBKTNV-3" value="/start" style="rounded=1;whiteSpace=wrap;html=1;fontSize=12;glass=0;strokeWidth=1;shadow=0;fillColor=#d5e8d4;strokeColor=#82b366;" parent="WIyWlLk6GJQsqaUBKTNV-1" vertex="1">
          <mxGeometry x="240" y="-1080" width="120" height="40" as="geometry" />
        </mxCell>
        <mxCell id="WIyWlLk6GJQsqaUBKTNV-4" value="Yes" style="rounded=0;html=1;jettySize=auto;orthogonalLoop=1;fontSize=11;endArrow=block;endFill=0;endSize=8;strokeWidth=1;shadow=0;labelBackgroundColor=none;edgeStyle=orthogonalEdgeStyle;fillColor=#dae8fc;strokeColor=#6c8ebf;" parent="WIyWlLk6GJQsqaUBKTNV-1" source="WIyWlLk6GJQsqaUBKTNV-6" edge="1">
          <mxGeometry y="20" relative="1" as="geometry">
            <mxPoint as="offset" />
            <mxPoint x="300" y="-710" as="targetPoint" />
          </mxGeometry>
        </mxCell>
        <mxCell id="WIyWlLk6GJQsqaUBKTNV-5" value="No" style="edgeStyle=orthogonalEdgeStyle;rounded=0;html=1;jettySize=auto;orthogonalLoop=1;fontSize=11;endArrow=block;endFill=0;endSize=8;strokeWidth=1;shadow=0;labelBackgroundColor=none;fillColor=#dae8fc;strokeColor=#6c8ebf;" parent="WIyWlLk6GJQsqaUBKTNV-1" source="WIyWlLk6GJQsqaUBKTNV-6" edge="1">
          <mxGeometry x="0.6" y="20" relative="1" as="geometry">
            <mxPoint as="offset" />
            <mxPoint x="370" y="-710" as="targetPoint" />
          </mxGeometry>
        </mxCell>
        <mxCell id="WIyWlLk6GJQsqaUBKTNV-6" value="Если это пьесса, нажмите на жабку" style="rhombus;whiteSpace=wrap;html=1;shadow=0;fontFamily=Helvetica;fontSize=12;align=center;strokeWidth=1;spacing=6;spacingTop=-4;fillColor=#dae8fc;strokeColor=#6c8ebf;" parent="WIyWlLk6GJQsqaUBKTNV-1" vertex="1">
          <mxGeometry x="250" y="-840" width="100" height="90" as="geometry" />
        </mxCell>
        <mxCell id="u6XhYRpbRkbT6tNBYT3o-0" value="&lt;b&gt;Что умеет этот бот?&lt;/b&gt;&lt;br&gt;Анализировать связи героев художественных произведений" style="rounded=0;whiteSpace=wrap;html=1;" vertex="1" parent="WIyWlLk6GJQsqaUBKTNV-1">
          <mxGeometry y="-1160" width="220" height="40" as="geometry" />
        </mxCell>
        <mxCell id="u6XhYRpbRkbT6tNBYT3o-4" value="" style="edgeStyle=orthogonalEdgeStyle;rounded=0;orthogonalLoop=1;jettySize=auto;html=1;fillColor=#dae8fc;strokeColor=#6c8ebf;" edge="1" parent="WIyWlLk6GJQsqaUBKTNV-1" source="u6XhYRpbRkbT6tNBYT3o-3">
          <mxGeometry relative="1" as="geometry">
            <mxPoint x="300" y="-840" as="targetPoint" />
          </mxGeometry>
        </mxCell>
        <mxCell id="u6XhYRpbRkbT6tNBYT3o-3" value="Kometjakten.txt" style="rounded=1;whiteSpace=wrap;html=1;fillColor=#d5e8d4;strokeColor=#82b366;" vertex="1" parent="WIyWlLk6GJQsqaUBKTNV-1">
          <mxGeometry x="240" y="-960" width="120" height="60" as="geometry" />
        </mxCell>
        <mxCell id="u6XhYRpbRkbT6tNBYT3o-5" value="&lt;div&gt;Привет, я ...bot! Я умею визуализировать связи персонажей и не только&lt;/div&gt;&lt;div&gt;Чтобы начать, просто пришлите мне текст произведения в формате .txt&lt;/div&gt;" style="text;html=1;strokeColor=#d6b656;fillColor=#fff2cc;align=center;verticalAlign=middle;whiteSpace=wrap;rounded=0;" vertex="1" parent="WIyWlLk6GJQsqaUBKTNV-1">
          <mxGeometry x="310" y="-1020" width="430" height="30" as="geometry" />
        </mxCell>
        <mxCell id="u6XhYRpbRkbT6tNBYT3o-8" value="Чудесно! Теперь выберите блок, который Вас интересует:" style="text;html=1;align=center;verticalAlign=middle;whiteSpace=wrap;rounded=0;fillColor=#fff2cc;strokeColor=#d6b656;" vertex="1" parent="WIyWlLk6GJQsqaUBKTNV-1">
          <mxGeometry x="380" y="-780" width="260" height="30" as="geometry" />
        </mxCell>
        <mxCell id="u6XhYRpbRkbT6tNBYT3o-14" value="" style="edgeStyle=orthogonalEdgeStyle;rounded=0;orthogonalLoop=1;jettySize=auto;html=1;exitX=0.75;exitY=1;exitDx=0;exitDy=0;fillColor=#dae8fc;strokeColor=#6c8ebf;" edge="1" parent="WIyWlLk6GJQsqaUBKTNV-1" source="u6XhYRpbRkbT6tNBYT3o-9" target="u6XhYRpbRkbT6tNBYT3o-13">
          <mxGeometry relative="1" as="geometry" />
        </mxCell>
        <mxCell id="u6XhYRpbRkbT6tNBYT3o-16" value="" style="edgeStyle=orthogonalEdgeStyle;rounded=0;orthogonalLoop=1;jettySize=auto;html=1;entryX=0.5;entryY=0;entryDx=0;entryDy=0;fillColor=#dae8fc;strokeColor=#6c8ebf;" edge="1" parent="WIyWlLk6GJQsqaUBKTNV-1" source="u6XhYRpbRkbT6tNBYT3o-9" target="u6XhYRpbRkbT6tNBYT3o-12">
          <mxGeometry relative="1" as="geometry">
            <mxPoint x="485" y="-685" as="targetPoint" />
          </mxGeometry>
        </mxCell>
        <mxCell id="u6XhYRpbRkbT6tNBYT3o-18" value="" style="edgeStyle=orthogonalEdgeStyle;rounded=0;orthogonalLoop=1;jettySize=auto;html=1;entryX=0.5;entryY=0;entryDx=0;entryDy=0;" edge="1" parent="WIyWlLk6GJQsqaUBKTNV-1" source="u6XhYRpbRkbT6tNBYT3o-9" target="u6XhYRpbRkbT6tNBYT3o-11">
          <mxGeometry relative="1" as="geometry">
            <mxPoint x="185" y="-685" as="targetPoint" />
          </mxGeometry>
        </mxCell>
        <mxCell id="u6XhYRpbRkbT6tNBYT3o-21" value="" style="edgeStyle=orthogonalEdgeStyle;rounded=0;orthogonalLoop=1;jettySize=auto;html=1;entryX=0.5;entryY=0;entryDx=0;entryDy=0;exitX=0.25;exitY=1;exitDx=0;exitDy=0;fillColor=#dae8fc;strokeColor=#6c8ebf;" edge="1" parent="WIyWlLk6GJQsqaUBKTNV-1" source="u6XhYRpbRkbT6tNBYT3o-9" target="u6XhYRpbRkbT6tNBYT3o-10">
          <mxGeometry relative="1" as="geometry" />
        </mxCell>
        <mxCell id="u6XhYRpbRkbT6tNBYT3o-9" value="choose" style="rounded=1;whiteSpace=wrap;html=1;" vertex="1" parent="WIyWlLk6GJQsqaUBKTNV-1">
          <mxGeometry x="280" y="-710" width="110" height="50" as="geometry" />
        </mxCell>
        <mxCell id="u6XhYRpbRkbT6tNBYT3o-10" value="приведи частотность имен собственных по главам" style="rounded=1;whiteSpace=wrap;html=1;fillColor=#dae8fc;strokeColor=#6c8ebf;" vertex="1" parent="WIyWlLk6GJQsqaUBKTNV-1">
          <mxGeometry x="190" y="-614" width="120" height="60" as="geometry" />
        </mxCell>
        <mxCell id="u6XhYRpbRkbT6tNBYT3o-24" value="" style="edgeStyle=orthogonalEdgeStyle;rounded=0;orthogonalLoop=1;jettySize=auto;html=1;exitX=0.5;exitY=1;exitDx=0;exitDy=0;" edge="1" parent="WIyWlLk6GJQsqaUBKTNV-1" source="u6XhYRpbRkbT6tNBYT3o-11" target="u6XhYRpbRkbT6tNBYT3o-23">
          <mxGeometry relative="1" as="geometry" />
        </mxCell>
        <mxCell id="u6XhYRpbRkbT6tNBYT3o-38" value="" style="edgeStyle=orthogonalEdgeStyle;rounded=0;orthogonalLoop=1;jettySize=auto;html=1;" edge="1" parent="WIyWlLk6GJQsqaUBKTNV-1" source="u6XhYRpbRkbT6tNBYT3o-11" target="u6XhYRpbRkbT6tNBYT3o-22">
          <mxGeometry relative="1" as="geometry" />
        </mxCell>
        <mxCell id="u6XhYRpbRkbT6tNBYT3o-11" value="создай граф со связями персонажей" style="rounded=1;whiteSpace=wrap;html=1;fillColor=#d5e8d4;strokeColor=#82b366;" vertex="1" parent="WIyWlLk6GJQsqaUBKTNV-1">
          <mxGeometry x="20" y="-614" width="120" height="60" as="geometry" />
        </mxCell>
        <mxCell id="u6XhYRpbRkbT6tNBYT3o-12" value="найди коллокаты" style="rounded=1;whiteSpace=wrap;html=1;fillColor=#dae8fc;strokeColor=#6c8ebf;" vertex="1" parent="WIyWlLk6GJQsqaUBKTNV-1">
          <mxGeometry x="530" y="-614" width="120" height="60" as="geometry" />
        </mxCell>
        <mxCell id="u6XhYRpbRkbT6tNBYT3o-27" value="" style="edgeStyle=orthogonalEdgeStyle;rounded=0;orthogonalLoop=1;jettySize=auto;html=1;entryX=0.5;entryY=0;entryDx=0;entryDy=0;fillColor=#dae8fc;strokeColor=#6c8ebf;" edge="1" parent="WIyWlLk6GJQsqaUBKTNV-1" source="u6XhYRpbRkbT6tNBYT3o-13" target="u6XhYRpbRkbT6tNBYT3o-28">
          <mxGeometry relative="1" as="geometry">
            <mxPoint x="420" y="-500" as="targetPoint" />
          </mxGeometry>
        </mxCell>
        <mxCell id="u6XhYRpbRkbT6tNBYT3o-13" value="предположи, какие герои являются главными" style="rounded=1;whiteSpace=wrap;html=1;fillColor=#dae8fc;strokeColor=#6c8ebf;" vertex="1" parent="WIyWlLk6GJQsqaUBKTNV-1">
          <mxGeometry x="360" y="-614" width="120" height="60" as="geometry" />
        </mxCell>
        <mxCell id="u6XhYRpbRkbT6tNBYT3o-41" value="" style="edgeStyle=orthogonalEdgeStyle;rounded=0;orthogonalLoop=1;jettySize=auto;html=1;" edge="1" parent="WIyWlLk6GJQsqaUBKTNV-1" source="u6XhYRpbRkbT6tNBYT3o-22" target="u6XhYRpbRkbT6tNBYT3o-40">
          <mxGeometry relative="1" as="geometry" />
        </mxCell>
        <mxCell id="u6XhYRpbRkbT6tNBYT3o-22" value="мне нужны все персонажи" style="rounded=1;whiteSpace=wrap;html=1;fillColor=#d5e8d4;strokeColor=#82b366;" vertex="1" parent="WIyWlLk6GJQsqaUBKTNV-1">
          <mxGeometry x="-150" y="-614" width="120" height="60" as="geometry" />
        </mxCell>
        <mxCell id="u6XhYRpbRkbT6tNBYT3o-23" value="мне нужны определенные" style="rounded=1;whiteSpace=wrap;html=1;fillColor=#d5e8d4;strokeColor=#82b366;" vertex="1" parent="WIyWlLk6GJQsqaUBKTNV-1">
          <mxGeometry x="20" y="-510" width="120" height="60" as="geometry" />
        </mxCell>
        <mxCell id="u6XhYRpbRkbT6tNBYT3o-28" value="&lt;span&gt;... (вывод)&lt;/span&gt;&lt;br&gt;&lt;span&gt;я прав?&lt;/span&gt;" style="rhombus;whiteSpace=wrap;html=1;fillColor=#dae8fc;strokeColor=#6c8ebf;" vertex="1" parent="WIyWlLk6GJQsqaUBKTNV-1">
          <mxGeometry x="375" y="-510" width="90" height="70" as="geometry" />
        </mxCell>
        <mxCell id="u6XhYRpbRkbT6tNBYT3o-29" value="ура-ура" style="rounded=1;whiteSpace=wrap;html=1;fillColor=#dae8fc;strokeColor=#6c8ebf;" vertex="1" parent="WIyWlLk6GJQsqaUBKTNV-1">
          <mxGeometry x="380" y="-410" width="80" height="35" as="geometry" />
        </mxCell>
        <mxCell id="u6XhYRpbRkbT6tNBYT3o-31" value="жаль :с но я честно пытался" style="rounded=1;whiteSpace=wrap;html=1;fillColor=#dae8fc;strokeColor=#6c8ebf;" vertex="1" parent="WIyWlLk6GJQsqaUBKTNV-1">
          <mxGeometry x="500" y="-497.5" width="100" height="45" as="geometry" />
        </mxCell>
        <mxCell id="u6XhYRpbRkbT6tNBYT3o-36" value="Yes" style="rounded=0;html=1;jettySize=auto;orthogonalLoop=1;fontSize=11;endArrow=block;endFill=0;endSize=8;strokeWidth=1;shadow=0;labelBackgroundColor=none;edgeStyle=orthogonalEdgeStyle;fillColor=#dae8fc;strokeColor=#6c8ebf;exitX=0.5;exitY=1;exitDx=0;exitDy=0;entryX=0.5;entryY=0;entryDx=0;entryDy=0;" edge="1" parent="WIyWlLk6GJQsqaUBKTNV-1" source="u6XhYRpbRkbT6tNBYT3o-28" target="u6XhYRpbRkbT6tNBYT3o-29">
          <mxGeometry x="-0.3333" y="20" relative="1" as="geometry">
            <mxPoint as="offset" />
            <mxPoint x="320" y="-730" as="sourcePoint" />
            <mxPoint x="320" y="-690" as="targetPoint" />
          </mxGeometry>
        </mxCell>
        <mxCell id="u6XhYRpbRkbT6tNBYT3o-37" value="No" style="edgeStyle=orthogonalEdgeStyle;rounded=0;html=1;jettySize=auto;orthogonalLoop=1;fontSize=11;endArrow=block;endFill=0;endSize=8;strokeWidth=1;shadow=0;labelBackgroundColor=none;fillColor=#dae8fc;strokeColor=#6c8ebf;exitX=1;exitY=0.5;exitDx=0;exitDy=0;entryX=0;entryY=0.5;entryDx=0;entryDy=0;" edge="1" parent="WIyWlLk6GJQsqaUBKTNV-1" source="u6XhYRpbRkbT6tNBYT3o-28" target="u6XhYRpbRkbT6tNBYT3o-31">
          <mxGeometry x="-0.1429" y="15" relative="1" as="geometry">
            <mxPoint as="offset" />
            <mxPoint x="360" y="-785" as="sourcePoint" />
            <mxPoint x="380" y="-700" as="targetPoint" />
          </mxGeometry>
        </mxCell>
        <mxCell id="u6XhYRpbRkbT6tNBYT3o-40" value="вот, что я нашел ...&lt;br&gt;напишите те слова, которые, по вашему мнению, не являются именами" style="rounded=1;whiteSpace=wrap;html=1;fillColor=#fff2cc;strokeColor=#d6b656;" vertex="1" parent="WIyWlLk6GJQsqaUBKTNV-1">
          <mxGeometry x="-380" y="-614" width="180" height="60" as="geometry" />
        </mxCell>
      </root>
    </mxGraphModel>
  </diagram>
</mxfile>
